<svg xmlns="http://www.w3.org/2000/svg" id="Warstwa_1" viewBox="0 0 306 250">
    <style>
        .st0{fill:#c5cae9}.st1{fill:#fff}.st2{fill:#e8eaf6}
    </style>
    <path d="M259.982 80.612c0 2.453-2.044 4.497-4.497 4.497s-4.498-2.044-4.498-4.497 2.044-4.497 4.498-4.497c2.589.136 4.497 2.181 4.497 4.497z" class="st0"/>
    <circle cx="258.39" cy="152.486" r="4.498" class="st0"/>
    <path d="M164.513 3.046c0 1.363-1.09 2.589-2.589 2.589-1.363 0-2.589-1.09-2.589-2.589 0-1.363 1.09-2.589 2.589-2.589 1.362-.136 2.589 1.09 2.589 2.589zM302.208 146.712c-1.227.681-2.589.136-3.271-1.09-.681-1.227-.136-2.589 1.09-3.271s2.589-.136 3.271 1.09c.545 1.363.136 2.726-1.09 3.271zM241.992 14.868c1.363.409 2.181 1.908 1.772 3.271-.409 1.363-1.908 2.181-3.271 1.772-1.363-.409-2.181-1.908-1.772-3.271s1.772-2.181 3.271-1.772zM286.558 116.456h-9.131c-1.09 0-1.908-.818-1.908-1.908 0-1.09.818-1.908 1.908-1.908h9.131c1.09 0 1.908.818 1.908 1.908-.136.954-.954 1.908-1.908 1.908zM51.509 89.144c0 2.453-2.044 4.497-4.497 4.497s-4.497-2.044-4.497-4.497 2.044-4.497 4.497-4.497c2.452-.136 4.497 1.908 4.497 4.497zM92.535 25.225a2.443 2.443 0 0 1-2.453 2.453 2.443 2.443 0 0 1-2.453-2.453c0-1.363.954-2.453 2.317-2.453s2.589 1.091 2.589 2.453zM44.914 155.35c-1.227.681-2.589.136-3.271-1.09-.681-1.227-.136-2.589 1.09-3.271s2.589-.136 3.271 1.09c.681 1.091.136 2.59-1.09 3.271zM15.92 179.339c-1.227.681-2.589.136-3.271-1.09s-.136-2.589 1.09-3.271 2.589-.136 3.271 1.09c.682 1.091.137 2.59-1.09 3.271zM33.002 129.758h-9.268c-1.09 0-1.908-.818-1.908-1.908 0-1.09.818-1.908 1.908-1.908h9.131c1.09 0 1.908.818 1.908 1.908.001 1.09-.953 1.908-1.771 1.908zM56.442 53.164H47.31c-1.09 0-1.908-.818-1.908-1.908 0-1.09.818-1.908 1.908-1.908h9.131c1.09 0 1.908.818 1.908 1.908-.136 1.091-1.09 1.908-1.907 1.908zM193.735 27.679a2.443 2.443 0 0 1-2.453 2.453 2.443 2.443 0 0 1-2.453-2.453c0-1.363.954-2.453 2.317-2.453 1.363-.001 2.589 1.09 2.589 2.453zM49.968 202.116c0 1.363-1.09 2.589-2.589 2.589-1.363 0-2.589-1.09-2.589-2.589 0-1.363 1.09-2.589 2.589-2.589 1.363-.137 2.589 1.09 2.589 2.589zM68.58 234.327c0 1.363-1.09 2.453-2.453 2.453s-2.453-1.09-2.453-2.453c0-1.363.954-2.453 2.317-2.453s2.589 1.09 2.589 2.453zM8.72 109.441c0 1.363-1.09 2.453-2.453 2.453s-2.453-1.09-2.453-2.453.954-2.453 2.317-2.453 2.589 1.09 2.589 2.453zM131.535 21.7h-9.131c-1.09 0-1.908-.818-1.908-1.908 0-1.09.818-1.908 1.908-1.908h9.131c1.09 0 1.908.818 1.908 1.908-.136 1.091-1.09 1.908-1.908 1.908zM257.165 210.546a2.443 2.443 0 0 1-2.453 2.453 2.443 2.443 0 0 1-2.453-2.453c0-1.363.954-2.453 2.317-2.453 1.363-.001 2.589 1.09 2.589 2.453zM296.165 207.02h-9.131c-1.09 0-1.908-.818-1.908-1.908 0-1.09.818-1.908 1.908-1.908h9.131c1.09 0 1.908.818 1.908 1.908-.136 1.091-1.09 1.908-1.908 1.908z" class="st0"/>
    <path d="M193.398 207.957l-94.448 14.04a3.421 3.421 0 0 1-3.887-2.881L77.317 99.726a3.421 3.421 0 0 1 2.881-3.887l94.448-14.04a3.421 3.421 0 0 1 3.887 2.881l17.748 119.39a3.424 3.424 0 0 1-2.883 3.887z" class="st1"/>
    <path d="M98.445 223.534a4.93 4.93 0 0 1-4.865-4.197L75.833 99.947a4.928 4.928 0 0 1 4.144-5.592l94.447-14.04a4.894 4.894 0 0 1 3.654.914 4.889 4.889 0 0 1 1.937 3.23l17.748 119.39a4.928 4.928 0 0 1-4.144 5.591l-94.448 14.04a4.833 4.833 0 0 1-.726.054zm76.706-140.272c-.095 0-.19.007-.286.021l-94.447 14.04a1.924 1.924 0 0 0-1.618 2.183l17.748 119.39a1.925 1.925 0 0 0 2.183 1.618l94.447-14.04a1.925 1.925 0 0 0 1.618-2.184L177.048 84.901a1.905 1.905 0 0 0-.756-1.261 1.908 1.908 0 0 0-1.141-.378zm18.247 124.695h.01-.01z" class="st0"/>
    <path d="M220.581 223.583H106.992a3.421 3.421 0 0 1-3.421-3.421V76.894a3.421 3.421 0 0 1 3.421-3.421h113.589a3.421 3.421 0 0 1 3.421 3.421v143.267a3.421 3.421 0 0 1-3.421 3.422z" class="st1"/>
    <path d="M220.581 225.083H106.992a4.926 4.926 0 0 1-4.921-4.921V76.895a4.927 4.927 0 0 1 4.921-4.921h113.589a4.927 4.927 0 0 1 4.921 4.921v143.268a4.926 4.926 0 0 1-4.921 4.92zM106.992 74.974c-1.06 0-1.921.862-1.921 1.921v143.268c0 1.06.862 1.921 1.921 1.921h113.589c1.06 0 1.921-.861 1.921-1.921V76.895a1.923 1.923 0 0 0-1.921-1.921H106.992z" class="st0"/>
    <path d="M214.953 217.028H112.62a1.834 1.834 0 0 1-1.834-1.834V81.862c0-1.013.821-1.834 1.834-1.834h102.333c1.013 0 1.834.821 1.834 1.834v133.333a1.834 1.834 0 0 1-1.834 1.833z" class="st1"/>
    <path d="M214.953 218.528H112.62a3.337 3.337 0 0 1-3.333-3.334V81.862a3.338 3.338 0 0 1 3.333-3.334h102.333a3.338 3.338 0 0 1 3.334 3.334v133.333a3.338 3.338 0 0 1-3.334 3.333zm-102.333-137a.334.334 0 0 0-.333.334v133.333c0 .185.149.334.333.334h102.333a.333.333 0 0 0 .334-.334V81.862a.334.334 0 0 0-.334-.334H112.62z" class="st0"/>
    <path d="M185.74 67.803h-10.068c.067-.492.114-.99.114-1.5 0-6.075-4.925-11-11-11h-2c-6.075 0-11 4.925-11 11 0 .51.047 1.008.114 1.5h-10.068l-5.546 17h55l-5.546-17z" class="st2"/>
    <path d="M191.287 86.303h-55a1.5 1.5 0 0 1-1.426-1.965l5.546-17a1.5 1.5 0 0 1 1.426-1.035h8.454c0-6.893 5.607-12.5 12.5-12.5h2c6.893 0 12.501 5.607 12.501 12.5h8.453c.649 0 1.225.417 1.426 1.035l5.547 17a1.5 1.5 0 0 1-1.427 1.965zm-52.933-3h50.866l-4.568-14h-8.979a1.502 1.502 0 0 1-1.486-1.703c.068-.5.101-.912.101-1.296 0-5.238-4.262-9.5-9.501-9.5h-2c-5.238 0-9.5 4.262-9.5 9.5 0 .385.032.797.101 1.296a1.497 1.497 0 0 1-1.486 1.703h-8.979l-4.569 14z" class="st0"/>
    <path d="M164.995 62.506c2.197.659 3.515 3.075 2.856 5.272-.659 2.197-3.075 3.515-5.272 2.856s-3.515-3.075-2.856-5.272c.659-2.197 2.856-3.515 5.272-2.856z" class="st1"/>
    <path d="M163.734 72.052a5.245 5.245 0 0 1-1.516-.222c-2.854-.856-4.546-3.983-3.693-6.828.879-2.928 3.801-4.521 6.799-3.703l.03.009c2.854.857 4.546 3.983 3.693 6.828-.705 2.353-2.952 3.916-5.313 3.916zm.027-8.465c-1.317 0-2.442.807-2.841 2.133-.455 1.52.487 3.256 2.018 3.715 1.517.455 3.256-.486 3.716-2.018.454-1.515-.481-3.245-2.003-3.711a3.478 3.478 0 0 0-.89-.119z" class="st0"/>
    <path d="M135.404 98.706c4.783 1.435 7.654 6.697 6.219 11.48s-6.697 7.654-11.48 6.219c-4.783-1.435-7.654-6.697-6.219-11.48 1.435-4.784 6.218-7.654 11.48-6.219z" class="st2"/>
    <path d="M132.674 118.025c-.963 0-1.935-.136-2.891-.423-5.454-1.636-8.686-7.606-7.057-13.037 1.678-5.593 7.269-8.631 13.007-7.065l.03.009c2.634.791 4.83 2.596 6.181 5.085 1.354 2.495 1.666 5.319.876 7.952-1.348 4.494-5.64 7.479-10.146 7.479zm.006-18.442c-3.501 0-6.497 2.157-7.56 5.7-.597 1.989-.356 4.135.679 6.04 1.034 1.905 2.704 3.284 4.702 3.884 4.134 1.241 8.677-1.225 9.924-5.38 1.238-4.127-1.218-8.667-5.366-9.919a9.08 9.08 0 0 0-2.379-.325z" class="st0"/>
    <g>
        <path d="M196.108 101.927h-41.305a1.25 1.25 0 0 1 0-2.5h41.305a1.25 1.25 0 0 1 0 2.5z" class="st0"/>
    </g>
    <g>
        <path d="M183.035 109.127h-28.231a1.25 1.25 0 0 1 0-2.5h28.231a1.25 1.25 0 0 1 0 2.5z" class="st0"/>
    </g>
    <g>
        <path d="M238.679 241.829l-6.648 4.206a1.44 1.44 0 0 1-1.986-.447l-30.791-48.67a1.44 1.44 0 0 1 .447-1.986l6.648-4.206a1.44 1.44 0 0 1 1.986.447l30.791 48.67a1.44 1.44 0 0 1-.447 1.986z" class="st2"/>
        <path d="M231.267 247.759a2.923 2.923 0 0 1-2.489-1.369l-30.791-48.67a2.922 2.922 0 0 1-.384-2.217 2.921 2.921 0 0 1 1.297-1.839l6.647-4.206a2.943 2.943 0 0 1 4.056.913l30.791 48.67a2.942 2.942 0 0 1-.913 4.055l-6.647 4.206a2.92 2.92 0 0 1-1.567.457zm-24.2-55.784l-6.564 4.225 30.81 48.587 6.514-4.192-30.76-48.62z" class="st0"/>
    </g>
    <g>
        <path d="M201.747 129.245c21.261 6.378 34.018 29.766 27.64 51.027-6.378 21.261-29.766 34.018-51.027 27.64-21.261-6.378-34.018-29.766-27.64-51.027 6.379-21.262 27.64-34.019 51.027-27.64z" class="st2"/>
        <path d="M189.692 210.825a40.6 40.6 0 0 1-11.691-1.717c-22.007-6.602-35.048-30.682-28.478-52.584 6.769-22.564 29.358-34.811 52.553-28.486l.03.009c10.613 3.185 19.465 10.477 24.924 20.534 5.47 10.075 6.731 21.457 3.554 32.05-3.184 10.612-10.476 19.464-20.533 24.924-6.435 3.493-13.404 5.27-20.359 5.27zm.227-81.939c-17.436 0-32.762 10.892-38.001 28.357-6.181 20.604 6.093 43.259 26.802 49.471 9.951 2.984 20.653 1.793 30.139-3.356 9.473-5.143 16.339-13.469 19.331-23.445 2.985-9.949 1.793-20.653-3.355-30.139-5.141-9.469-13.461-16.332-23.431-19.327a43.667 43.667 0 0 0-11.485-1.561z" class="st0"/>
    </g>
    <g>
        <path d="M199.861 135.591c17.831 5.349 28.529 24.963 23.18 42.794-5.349 17.831-24.963 28.529-42.794 23.18-17.831-5.349-28.529-24.963-23.18-42.794 5.349-17.831 23.18-28.529 42.794-23.18z" class="st1"/>
        <path d="M189.751 204.21c-3.319 0-6.634-.479-9.863-1.448-8.952-2.686-16.417-8.835-21.021-17.317-4.613-8.497-5.677-18.098-2.997-27.033 5.71-19.03 24.763-29.357 44.32-24.026l.03.009c18.561 5.568 29.56 25.878 24.019 44.351-2.686 8.952-8.836 16.418-17.317 21.021-5.428 2.945-11.305 4.443-17.171 4.443zm.193-68.718c-14.536 0-27.313 9.078-31.681 23.638-2.487 8.293-1.493 17.215 2.799 25.122 4.288 7.897 11.229 13.621 19.544 16.115 8.292 2.488 17.214 1.495 25.121-2.799 7.898-4.287 13.621-11.228 16.116-19.543 5.15-17.169-5.074-36.047-22.327-41.232a36.402 36.402 0 0 0-9.572-1.301z" class="st0"/>
    </g>
    <g>
        <path d="M208.533 156.678h-9.088c-1.085 0-1.899-.814-1.899-1.899s.814-1.899 1.899-1.899h9.088c1.085 0 1.899.814 1.899 1.899-.135.95-.949 1.899-1.899 1.899z" class="st2"/>
        <path d="M205.888 150.235v9.088c0 1.085-.814 1.899-1.899 1.899s-1.899-.814-1.899-1.899v-9.088c0-1.085.814-1.899 1.899-1.899.95.136 1.899.95 1.899 1.899z" class="st2"/>
    </g>
</svg>
